{
  "accessors": [
    {
      "name": "Apple_Cube.020-Mesh_0_positions",
      "componentType": 5126,
      "count": 528,
      "min": [
        -0.40119698643684387,
        -0.3941960036754608,
        -0.3993520140647888
      ],
      "max": [
        0.4012550115585327,
        0.24241000413894653,
        0.3993520140647888
      ],
      "type": "VEC3",
      "bufferView": 0,
      "byteOffset": 0
    },
    {
      "name": "Apple_Cube.020-Mesh_0_normals",
      "componentType": 5126,
      "count": 528,
      "min": [
        -0.9481433033943176,
        -0.9989135265350342,
        -0.9376912117004395
      ],
      "max": [
        0.9460984468460083,
        0.9978020787239075,
        0.9376912117004395
      ],
      "type": "VEC3",
      "bufferView": 1,
      "byteOffset": 0
    },
    {
      "name": "Apple_Cube.020-Mesh_0_texcoords",
      "componentType": 5126,
      "count": 528,
      "min": [
        0.0941770002245903,
        0.2476460039615631
      ],
      "max": [
        0.15242800116539001,
        0.3058969974517822
      ],
      "type": "VEC2",
      "bufferView": 2,
      "byteOffset": 0
    },
    {
      "name": "Apple_Cube.020-Mesh_0_indices",
      "componentType": 5123,
      "count": 768,
      "min": [
        0
      ],
      "max": [
        527
      ],
      "type": "SCALAR",
      "bufferView": 3,
      "byteOffset": 0
    },
    {
      "name": "Apple_Cube.020-Mesh_1_positions",
      "componentType": 5126,
      "count": 208,
      "min": [
        -0.031199000775814056,
        0.1816139966249466,
        -0.0334790013730526
      ],
      "max": [
        0.08648400008678436,
        0.4569909870624542,
        0.029783999547362328
      ],
      "type": "VEC3",
      "bufferView": 0,
      "byteOffset": 6336
    },
    {
      "name": "Apple_Cube.020-Mesh_1_normals",
      "componentType": 5126,
      "count": 208,
      "min": [
        -0.9330741763114929,
        -0.4928198456764221,
        -0.9479893445968628
      ],
      "max": [
        0.9473004937171936,
        0.9354812502861023,
        0.9480348825454712
      ],
      "type": "VEC3",
      "bufferView": 1,
      "byteOffset": 6336
    },
    {
      "name": "Apple_Cube.020-Mesh_1_texcoords",
      "componentType": 5126,
      "count": 208,
      "min": [
        0.8500549793243408,
        0.24869400262832642
      ],
      "max": [
        0.8838229775428772,
        0.3153820037841797
      ],
      "type": "VEC2",
      "bufferView": 2,
      "byteOffset": 4224
    },
    {
      "name": "Apple_Cube.020-Mesh_1_indices",
      "componentType": 5123,
      "count": 312,
      "min": [
        0
      ],
      "max": [
        207
      ],
      "type": "SCALAR",
      "bufferView": 3,
      "byteOffset": 1536
    },
    {
      "name": "Apple_Cube.020-Mesh_2_positions",
      "componentType": 5126,
      "count": 126,
      "min": [
        -0.303523987531662,
        0.2798430025577545,
        -0.007615000009536743
      ],
      "max": [
        0.011547000147402287,
        0.4575420022010803,
        0.002489000093191862
      ],
      "type": "VEC3",
      "bufferView": 0,
      "byteOffset": 8832
    },
    {
      "name": "Apple_Cube.020-Mesh_2_normals",
      "componentType": 5126,
      "count": 126,
      "min": [
        -0.8061378598213196,
        -0.9863100051879883,
        -1
      ],
      "max": [
        0.99992436170578,
        0.9996824264526367,
        1
      ],
      "type": "VEC3",
      "bufferView": 1,
      "byteOffset": 8832
    },
    {
      "name": "Apple_Cube.020-Mesh_2_texcoords",
      "componentType": 5126,
      "count": 126,
      "min": [
        0,
        1
      ],
      "max": [
        0,
        1
      ],
      "type": "VEC2",
      "bufferView": 2,
      "byteOffset": 5888
    },
    {
      "name": "Apple_Cube.020-Mesh_2_indices",
      "componentType": 5123,
      "count": 240,
      "min": [
        0
      ],
      "max": [
        125
      ],
      "type": "SCALAR",
      "bufferView": 3,
      "byteOffset": 2160
    }
  ],
  "asset": {
    "generator": "obj2gltf",
    "version": "2.0"
  },
  "buffers": [
    {
      "name": "Apple",
      "byteLength": 30224,
      "uri": "data:application/octet-stream;base64,"
    }
  ],
  "bufferViews": [
    {
      "name": "bufferView_0",
      "buffer": 0,
      "byteLength": 10344,
      "byteOffset": 0,
      "byteStride": 12,
      "target": 34962
    },
    {
      "name": "bufferView_1",
      "buffer": 0,
      "byteLength": 10344,
      "byteOffset": 10344,
      "byteStride": 12,
      "target": 34962
    },
    {
      "name": "bufferView_2",
      "buffer": 0,
      "byteLength": 6896,
      "byteOffset": 20688,
      "byteStride": 8,
      "target": 34962
    },
    {
      "name": "bufferView_3",
      "buffer": 0,
      "byteLength": 2640,
      "byteOffset": 27584,
      "target": 34963
    }
  ],
  "materials": [
    {
      "name": "DarkRed",
      "pbrMetallicRoughness": {
        "baseColorFactor": [
          0.106287,
          0.022293,
          0.015061,
          1
        ],
        "metallicFactor": 0,
        "roughnessFactor": 0.903921569
      },
      "emissiveFactor": [
        0,
        0,
        0
      ],
      "alphaMode": "OPAQUE",
      "doubleSided": false
    },
    {
      "name": "DarkBrown",
      "pbrMetallicRoughness": {
        "baseColorFactor": [
          0.125942,
          0.05688,
          0.037455,
          1
        ],
        "metallicFactor": 0,
        "roughnessFactor": 0.903921569
      },
      "emissiveFactor": [
        0,
        0,
        0
      ],
      "alphaMode": "OPAQUE",
      "doubleSided": false
    },
    {
      "name": "DarkGreen",
      "pbrMetallicRoughness": {
        "baseColorFactor": [
          0.024492,
          0.048573,
          0.022199,
          1
        ],
        "metallicFactor": 0,
        "roughnessFactor": 0.903921569
      },
      "emissiveFactor": [
        0,
        0,
        0
      ],
      "alphaMode": "OPAQUE",
      "doubleSided": false
    }
  ],
  "meshes": [
    {
      "name": "Apple_Cube.020-Mesh",
      "primitives": [
        {
          "attributes": {
            "POSITION": 0,
            "NORMAL": 1,
            "TEXCOORD_0": 2
          },
          "indices": 3,
          "material": 0,
          "mode": 4
        },
        {
          "attributes": {
            "POSITION": 4,
            "NORMAL": 5,
            "TEXCOORD_0": 6
          },
          "indices": 7,
          "material": 1,
          "mode": 4
        },
        {
          "attributes": {
            "POSITION": 8,
            "NORMAL": 9,
            "TEXCOORD_0": 10
          },
          "indices": 11,
          "material": 2,
          "mode": 4
        }
      ]
    }
  ],
  "nodes": [
    {
      "name": "Apple_Cube.020",
      "mesh": 0
    }
  ],
  "scene": 0,
  "scenes": [
    {
      "nodes": [
        0
      ]
    }
  ]
}
